<?xml version="1.0" encoding="UTF-8" standalone="no"?>
<!-- Created with Inkscape (http://www.inkscape.org/) -->

<svg
   width="79.999771mm"
   height="79.999741mm"
   viewBox="0 0 79.999771 79.999741"
   version="1.1"
   id="svg1"
   xml:space="preserve"
   xmlns:inkscape="http://www.inkscape.org/namespaces/inkscape"
   xmlns:sodipodi="http://sodipodi.sourceforge.net/DTD/sodipodi-0.dtd"
   xmlns="http://www.w3.org/2000/svg"
   xmlns:svg="http://www.w3.org/2000/svg"><sodipodi:namedview
     id="namedview1"
     pagecolor="#ffffff"
     bordercolor="#999999"
     borderopacity="1"
     inkscape:showpageshadow="2"
     inkscape:pageopacity="0"
     inkscape:pagecheckerboard="0"
     inkscape:deskcolor="#d1d1d1"
     inkscape:document-units="mm"
     inkscape:export-bgcolor="#ffffff00" /><defs
     id="defs1" /><g
     inkscape:label="Layer 1"
     inkscape:groupmode="layer"
     id="layer1"
     style="opacity:1;mix-blend-mode:normal"
     transform="translate(-70.781328,-111.55692)"><path
       style="display:inline;fill:#5c5c43;fill-opacity:1;stroke-width:1.03106"
       d="m 70.784931,191.55666 -0.0036,-14.26045 c 0.580088,-0.2237 1.381007,-0.4123 1.779828,-0.41911 l 0.72511,-0.0124 v 0.84672 0.84672 h 0.931341 c 0.512242,0 1.347214,-0.18599 1.855499,-0.41332 0.508285,-0.22733 1.453718,-0.8204 2.100956,-1.31792 0.647236,-0.49754 1.176798,-1.00184 1.176798,-1.12068 0,-0.11884 -1.049207,-0.14331 -2.331583,-0.0544 -1.497338,0.1038 -2.511535,0.0498 -2.834536,-0.15087 -0.27662,-0.1719 -0.362366,-0.31641 -0.190526,-0.32114 0.17184,-0.004 0.635797,-0.14018 1.031029,-0.30102 l 0.718593,-0.29245 -1.426542,-0.98218 c -0.784595,-0.54021 -1.503706,-1.26591 -1.598022,-1.61268 -0.09428,-0.34678 -0.1833,-0.89744 -0.197751,-1.2237 l -0.02631,-0.59321 2.043502,-0.2038 c 1.123921,-0.11209 2.681203,-0.28967 3.460626,-0.39464 l 1.417123,-0.19083 -1.111194,-0.77615 c -0.611151,-0.4269 -1.252119,-0.77617 -1.424369,-0.77617 -0.172257,0 -0.576898,-0.19771 -0.899212,-0.43937 -0.322312,-0.24165 -0.586027,-0.73 -0.586027,-1.08521 0,-0.35522 0.238502,-0.87689 0.53,-1.15926 l 0.529991,-0.5134 1.909024,-0.17074 c 1.049964,-0.0939 2.063982,-0.27547 2.253361,-0.40347 l 0.344328,-0.23272 -1.66272,-0.83795 c -0.9145,-0.46087 -2.117459,-1.30629 -2.67324,-1.87871 -0.555791,-0.57243 -1.181782,-1.39005 -1.391083,-1.81694 -0.209311,-0.4269 -0.29417,-0.77617 -0.188583,-0.77617 0.105588,0 0.56224,0.38413 1.014776,0.85364 l 0.822804,0.85362 0.483092,-0.57139 0.48309,-0.57138 -0.502305,-0.61234 -0.502305,-0.61234 0.527359,0.22315 c 0.290044,0.12273 1.102384,0.28861 1.805201,0.36862 l 1.277852,0.14546 -0.436721,-0.90398 c -0.240195,-0.49719 -0.399936,-1.24082 -0.35498,-1.6525 0.05442,-0.49819 0.34629,-0.89307 0.872782,-1.18078 0.435067,-0.23775 0.830578,-0.45343 0.878922,-0.4793 0.04834,-0.0259 -0.159303,-0.31165 -0.461435,-0.63505 -0.302133,-0.3234 -0.549324,-0.82753 -0.549324,-1.12028 0,-0.29277 0.427253,-0.9765 0.94945,-1.51943 l 0.949459,-0.98713 0.313085,-3.63146 0.313085,-3.63147 0.237444,1.27008 c 0.130592,0.69854 0.251448,2.43407 0.268569,3.85673 l 0.0311,2.58664 0.369721,0.47684 c 0.203343,0.26227 0.644607,0.58872 0.980584,0.72544 0.335976,0.13674 0.682168,0.44749 0.769308,0.69057 0.09219,0.25705 -0.09358,0.72912 -0.443976,1.12835 -0.331331,0.3775 -0.820971,0.76063 -1.088073,0.85137 -0.267113,0.0908 -0.485653,0.34453 -0.485653,0.56396 0,0.21943 0.29133,0.47723 0.647398,0.57289 0.356077,0.0957 1.126661,0.19334 1.712419,0.21706 0.697544,0.0283 1.065531,0.17459 1.066508,0.42416 8.17e-4,0.20956 -0.386991,0.78109 -0.861801,1.27007 -0.47481,0.48898 -1.09774,1.03292 -1.384306,1.20876 -0.286566,0.17583 -0.451789,0.39812 -0.367169,0.49396 0.08461,0.0959 0.502374,0.2177 0.928352,0.27079 0.425967,0.0531 1.054817,0.25711 1.397431,0.45338 0.376687,0.21579 1.018911,0.28908 1.624651,0.18539 l 1.00172,-0.17146 0.162233,0.54711 c 0.08919,0.30092 0.009,0.80982 -0.178388,1.13091 -0.187337,0.32109 -1.128454,0.90604 -2.091378,1.2999 -0.962923,0.39386 -1.950232,0.95203 -2.194036,1.2404 -0.243802,0.28836 -0.340749,0.59212 -0.21544,0.67501 0.1253,0.0829 1.951489,-0.0167 4.058175,-0.2215 2.482016,-0.2412 4.133635,-0.54011 4.691897,-0.84912 0.473843,-0.26228 0.913812,-0.42092 0.977723,-0.35251 0.06388,0.0684 -0.273421,0.49412 -0.749616,0.94604 -0.476195,0.45192 -1.096574,1.32613 -1.378626,1.94268 -0.282041,0.61656 -0.519346,1.50204 -0.527349,1.96775 l -0.01455,0.84672 -0.659197,0.0869 c -0.362555,0.0478 -1.033093,0.27007 -1.490073,0.49392 -0.456991,0.22383 -1.061534,0.40698 -1.343447,0.40698 -0.281902,0 -0.727312,0.25401 -0.989801,0.56447 -0.264213,0.31251 -0.812121,0.56449 -1.227414,0.56449 -0.412594,0 -0.750175,0.1124 -0.750175,0.24977 0,0.13739 0.293592,0.45569 0.65241,0.70735 0.358828,0.25167 1.124419,0.47737 1.701317,0.50156 0.576899,0.0242 1.21752,-0.10582 1.423592,-0.28885 0.206082,-0.18307 0.56771,-0.25356 0.80362,-0.15666 0.23592,0.0969 0.429745,0.44836 0.430731,0.78102 9.97e-4,0.38188 -0.63194,1.23947 -1.717292,2.32636 -0.945493,0.94684 -2.132846,1.96003 -2.63856,2.25155 -0.505723,0.29152 -0.919492,0.62657 -0.919492,0.74455 0,0.11799 0.444962,0.51078 0.988795,0.87289 0.543831,0.3621 1.52274,0.88384 2.17534,1.15942 l 1.186544,0.50106 3.028391,-0.0975 3.02839,-0.0975 0.08271,0.45784 c 0.04754,0.26322 -0.442939,0.95306 -1.153847,1.62288 l -1.236514,1.16505 h 0.992282 0.992282 l -0.309387,0.39903 c -0.170166,0.21947 -0.807636,0.64924 -1.416595,0.95505 -0.643799,0.32329 -2.242739,0.68787 -3.820251,0.87104 -1.492166,0.17327 -2.8567,0.31908 -3.032287,0.32402 -0.175598,0.005 -0.08192,0.20572 0.208095,0.44619 0.290044,0.24046 1.206238,0.80796 2.035978,1.2611 0.829751,0.45314 1.778992,0.8239 2.109427,0.82389 0.330435,-2e-5 1.596477,-0.60196 2.813418,-1.33767 1.216942,-0.73571 2.779107,-1.91052 3.47149,-2.61071 l 1.258867,-1.27306 0.190286,-1.38537 c 0.10466,-0.76196 0.08261,-1.71304 -0.04893,-2.11353 -0.161755,-0.49233 -0.825715,-1.0713 -2.05009,-1.78767 -0.995959,-0.58274 -2.328464,-1.51352 -2.961101,-2.06842 -0.632638,-0.55489 -1.150251,-1.11854 -1.150251,-1.25255 0,-0.134 0.377085,-0.12788 0.837963,0.0137 l 0.837962,0.25724 -0.824598,-0.91198 c -0.453515,-0.50159 -1.011289,-1.39114 -1.239495,-1.97677 l -0.414906,-1.06478 0.401332,-0.16485 c 0.220722,-0.0907 1.201166,0.17789 2.178749,0.5968 1.136088,0.48683 2.066085,0.7115 2.577449,0.62267 0.440008,-0.0764 1.249069,-0.42255 1.797895,-0.76917 l 0.997863,-0.6302 -1.395477,-0.74637 -1.395468,-0.74636 -0.593223,-1.12113 c -0.32627,-0.61661 -0.595166,-1.29957 -0.597559,-1.51766 l -0.004,-0.39655 0.482194,0.46711 c 0.265209,0.2569 0.56185,0.4671 0.659196,0.4671 0.09737,0 0.177002,-0.19072 0.177002,-0.42383 0,-0.2331 0.593273,-0.88006 1.318383,-1.43767 0.72512,-0.55762 1.318393,-1.07771 1.318393,-1.15575 0,-0.0781 -0.473216,-0.71735 -1.051589,-1.42067 -0.578374,-0.70332 -1.170989,-1.73887 -1.316918,-2.30123 -0.145929,-0.56235 -0.265548,-1.27648 -0.265818,-1.58694 l -4.88e-4,-0.56449 0.522497,0.91729 c 0.287372,0.5045 0.553907,0.91751 0.592295,0.9178 0.03837,2.7e-4 0.03199,-0.73002 -0.01426,-1.62289 -0.04624,-0.89287 0.03528,-1.94092 0.181039,-2.329 l 0.265089,-0.7056 0.01674,1.18286 c 0.009,0.65058 0.125967,1.25515 0.259509,1.34349 0.133542,0.0883 0.634631,-0.57095 1.113522,-1.4651 l 0.870715,-1.62573 0.16635,-3.95136 0.16636,-3.95137 0.63178,-1.83457 0.63179,-1.83456 0.15283,2.68129 c 0.084,1.4747 0.29169,3.12497 0.46143,3.66725 0.16974,0.5423 0.31265,1.87588 0.31756,2.96353 l 0.009,1.97755 0.50947,1.12896 c 0.2802,0.62093 0.51348,1.40647 0.51841,1.74563 0.005,0.33916 0.13461,0.97047 0.28821,1.4029 0.1536,0.43243 0.79722,1.45967 1.43029,2.28277 0.63304,0.8231 1.19531,1.63885 1.24947,1.81278 l 0.0985,0.31624 0.58068,-0.33264 c 0.32984,-0.18895 0.58067,-0.21581 0.58067,-0.0622 0,0.14874 -0.35962,0.65538 -0.79914,1.12585 l -0.79914,0.85541 -1.56884,0.18998 c -0.86286,0.10443 -1.50481,0.30087 -1.42655,0.43639 0.0782,0.13553 0.40223,0.24725 0.71997,0.24826 0.31775,0.001 0.9337,0.25421 1.36876,0.56263 l 0.79104,0.56076 1.4768,0.002 c 0.81224,10e-4 1.88014,-0.14702 2.3731,-0.32898 0.49297,-0.18196 1.47323,-0.7535 2.17835,-1.27008 l 1.28206,-0.93925 h 1.78737 1.78737 l 1.28126,-0.94253 c 0.70469,-0.51839 1.79244,-1.61176 2.41719,-2.4297 0.62477,-0.81795 1.08516,-1.54154 1.0231,-1.60797 -0.0621,-0.0665 -1.00934,0.20134 -2.10505,0.59506 -1.09572,0.39371 -2.92058,0.85405 -4.05525,1.02298 -1.13468,0.16893 -2.52052,0.22885 -3.07966,0.13314 -0.55913,-0.0957 -1.36012,-0.36415 -1.77996,-0.59654 -0.41985,-0.2324 -0.76335,-0.55028 -0.76335,-0.70639 0,-0.15612 0.20764,-0.35121 0.46143,-0.43353 0.25379,-0.0823 1.2327,-0.53599 2.17534,-1.00817 0.94265,-0.47217 2.45551,-1.42331 3.3619,-2.11365 0.90639,-0.69034 1.64823,-1.34399 1.64854,-1.45257 3.1e-4,-0.10859 -0.75243,-0.15571 -1.67273,-0.10476 l -1.67329,0.0927 -1.61528,-0.72772 c -0.88843,-0.40025 -1.80277,-0.72774 -2.03187,-0.72774 -0.2291,0 -0.75518,-0.18743 -1.16904,-0.41652 -0.41386,-0.22908 -1.01478,-0.8708 -1.33537,-1.42604 -0.32059,-0.55525 -0.51883,-1.07811 -0.44053,-1.16193 0.0784,-0.0838 0.79238,0.0499 1.58682,0.29709 0.82258,0.25597 2.39186,0.44634 3.64511,0.44219 l 2.20068,-0.007 -1.78543,-0.65128 c -0.98199,-0.35819 -2.13765,-1.01245 -2.56812,-1.45389 -0.43046,-0.44145 -0.74173,-0.84646 -0.69169,-0.90002 0.05,-0.0536 0.84971,0.0941 1.77707,0.32805 0.92736,0.23399 2.55017,0.42732 3.60624,0.42961 1.06032,0.002 2.31657,-0.17312 2.80543,-0.39176 0.4869,-0.21777 1.37301,-0.86758 1.96911,-1.44405 0.59611,-0.57646 1.08383,-1.19576 1.08383,-1.37622 0,-0.18046 -0.7416,-1.09626 -1.64798,-2.0351 -0.9064,-0.93886 -2.04274,-2.0465 -2.52518,-2.46145 -0.50347,-0.43303 -1.20681,-0.75446 -1.65086,-0.75446 -0.42553,0 -1.27667,-0.25824 -1.89143,-0.57386 -0.61477,-0.31563 -1.35507,-0.79365 -1.64513,-1.06227 -0.29004,-0.26862 -0.703,-0.72543 -0.91769,-1.01516 l -0.39035,-0.52678 0.85751,0.20161 c 0.47163,0.11087 1.32955,0.11623 1.90649,0.0119 0.57694,-0.10432 1.04899,-0.29177 1.04899,-0.41652 0,-0.12477 -0.26697,-0.30374 -0.59328,-0.39772 -0.3263,-0.094 -0.88991,-0.42586 -1.25247,-0.7375 l -0.6592,-0.56662 2.10943,0.14389 2.10943,0.1439 1.58206,-0.64528 1.58208,-0.64529 -0.079,-0.55571 c -0.0434,-0.30564 -0.14643,-1.44917 -0.22879,-2.54118 -0.0992,-1.31658 -0.006,-2.72923 0.27679,-4.19323 0.23461,-1.21428 0.42656,-3.45069 0.42656,-4.96981 0,-1.5191 0.1706,-3.69642 0.37912,-4.83845 0.20852,-1.14204 0.45777,-2.95863 0.55388,-4.03687 l 0.17475,-1.96043 0.23857,0.45631 c 0.13121,0.25097 0.36136,2.08573 0.51145,4.07724 0.15009,1.9915 0.50541,4.65434 0.78962,5.91742 0.2842,1.26307 0.51857,3.1682 0.52077,4.23361 0.002,1.06541 0.10836,2.11342 0.23585,2.3289 l 0.23179,0.39179 0.72208,-1.16795 c 0.39714,-0.64238 0.82496,-1.16796 0.95072,-1.16796 0.12574,0 0.22863,0.11088 0.22863,0.24638 0,0.13551 -0.65602,1.59119 -1.45781,3.23485 l -1.45782,2.98846 0.17515,0.74697 0.17515,0.74697 1.67818,-0.11438 c 0.92301,-0.0629 1.67818,-0.0139 1.67818,0.1089 0,0.12281 -0.48895,0.60242 -1.08656,1.06581 l -1.08657,0.8425 0.6629,0.26978 c 0.3646,0.14838 1.09009,0.35557 1.61219,0.4604 0.52211,0.10486 1.22583,0.11633 1.56382,0.0255 0.33799,-0.0908 1.17132,-0.7696 1.85184,-1.50844 l 1.2373,-1.34334 0.45705,0.3086 c 0.25138,0.16972 0.61954,0.76558 0.81814,1.32412 0.209,0.58778 0.29199,1.40704 0.19702,1.94495 -0.0903,0.51117 -0.40214,1.3472 -0.69312,1.85785 -0.32679,0.57348 -0.98175,1.13615 -1.71314,1.47173 -0.65125,0.29881 -1.18408,0.67481 -1.18408,0.83556 0,0.16075 0.26697,0.29075 0.59327,0.28887 0.3263,-0.002 1.11471,-0.32246 1.75202,-0.71241 l 1.15876,-0.70902 0.48923,0.47392 c 0.26908,0.26066 0.48924,0.759 0.48924,1.10745 0,0.40649 -0.51106,1.13351 -1.42606,2.02863 -0.78432,0.76729 -1.84049,1.60559 -2.34703,1.86288 -0.50653,0.25729 -1.48112,0.4678 -2.16575,0.4678 h -1.24478 l 0.37313,0.60154 c 0.20522,0.33084 0.87127,0.98777 1.4801,1.45987 l 1.10696,0.85833 3.34924,0.25335 3.34923,0.25334 1.2015,-0.31899 c 0.66082,-0.17545 1.65431,-0.70512 2.20777,-1.17707 0.55344,-0.47194 1.06647,-0.79363 1.14007,-0.71485 0.0736,0.0787 -0.0521,0.528 -0.27928,0.99827 -0.2272,0.47028 -0.52209,0.92717 -0.6553,1.0153 -0.14354,0.0949 -0.12238,0.5001 0.0519,0.9945 l 0.29418,0.83426 -0.44099,0.98989 c -0.24665,0.55363 -0.93639,1.32464 -1.56505,1.74942 -0.61822,0.41775 -1.61308,0.99108 -2.21079,1.2741 l -1.08677,0.51456 -1.3572,-0.37683 c -0.74647,-0.20727 -1.35723,-0.28572 -1.35723,-0.17433 0,0.11138 0.44992,0.53624 0.99981,0.94414 0.54988,0.4079 1.69579,0.89125 2.54646,1.07411 l 1.54666,0.33248 -0.63479,0.25228 c -0.34914,0.13875 -1.58405,0.32395 -2.74423,0.41158 l -2.10942,0.1593 -2.06944,-0.45896 c -1.13819,-0.25243 -2.17642,-0.3882 -2.30718,-0.3017 -0.13076,0.0865 -0.23774,0.52403 -0.23774,0.97226 v 0.81497 l 1.4774,1.04968 c 0.89376,0.63502 2.01352,1.15058 2.83453,1.3051 0.74643,0.14048 4.44218,0.34221 8.21277,0.44829 l 6.85562,0.19288 -1.58207,0.64659 -1.58206,0.64659 -0.39552,1.32378 -0.39552,1.32379 -1.28276,1.03011 c -0.78223,0.62817 -2.22263,1.35516 -3.69149,1.86315 l -2.40872,0.83304 2.3731,0.80155 2.3731,0.80153 2.10942,0.0208 2.10942,0.0208 0.0894,0.67717 c 0.0492,0.37244 -0.0695,0.99777 -0.26368,1.38964 -0.19419,0.39187 -0.87713,1.0691 -1.51763,1.50497 l -1.16455,0.79247 0.95918,0.42898 c 0.52753,0.23594 1.76351,0.52827 2.7466,0.64962 l 1.78744,0.22064 -2.24126,0.69626 -2.24126,0.69626 -3.16414,-0.0209 c -1.74027,-0.0115 -3.80438,-0.17291 -4.58692,-0.35865 -0.78253,-0.18573 -1.47284,-0.28413 -1.53402,-0.21864 -0.0612,0.0655 0.64827,0.69918 1.57653,1.40822 0.92828,0.70902 2.33052,1.61306 3.11609,2.00895 l 1.42832,0.7198 1.6128,-0.17533 1.6128,-0.17533 0.29887,0.91769 c 0.16438,0.50473 0.29886,1.27112 0.29886,1.70307 v 0.78538 l -0.80195,0.61125 -0.80197,0.61125 0.27844,0.35911 c 0.15313,0.19751 1.00828,0.70971 1.90034,1.13822 l 1.62191,0.77911 3.18638,0.28762 c 1.75251,0.1582 1.82111,0.4112 2.00238,0.56224 0.32272,0.28372 0.21807,0.64705 0.21807,1.05221 H 89.27958 Z m 5.761378,-4.41289 c 0.415544,-0.39114 0.712185,-0.74927 0.659197,-0.79584 l -2.752238,0.93774 c 0.273002,0.32289 0.685625,0.58308 0.916931,0.57817 0.231315,-0.005 0.760568,-0.32893 1.17611,-0.72007 z m 54.332591,-7.74097 -1.56151,-1.69619 -0.0838,0.56334 c -0.046,0.30985 -0.046,0.909 0,1.33147 l 0.0838,0.76812 1.18655,0.33702 c 0.6526,0.18536 1.35529,0.34948 1.56151,0.36472 0.20623,0.0153 -0.32772,-0.73558 -1.18655,-1.66848 z m -55.088126,0.72698 1.318383,-0.67972 -2.034224,-0.0223 -2.034225,-0.0223 -0.272952,0.54593 c -0.150125,0.30026 -0.272953,0.61777 -0.272953,0.7056 0,0.0878 0.444952,0.15804 0.988784,0.15604 0.543843,-0.002 1.582067,-0.3095 2.307187,-0.68334 z m 37.218776,-0.74885 1.42278,-0.87134 0.52634,-1.10434 c 0.28949,-0.60739 0.43494,-1.09989 0.32322,-1.09443 -0.11171,0.005 -0.95111,0.18164 -1.86533,0.39154 -0.91422,0.20991 -1.69851,0.42771 -1.74288,0.48401 -0.0444,0.0563 -0.15102,0.76916 -0.23703,1.58414 -0.086,0.81496 -0.0874,1.48176 -0.003,1.48176 0.0843,0 0.79349,-0.3921 1.57601,-0.87134 z m -35.504871,-0.1165 c 0,-0.0777 -0.0593,-0.14113 -0.131837,-0.14113 -0.07256,0 -0.131838,0.0635 -0.131838,0.14113 0,0.0777 0.0593,0.14112 0.131838,0.14112 0.07255,0 0.131837,-0.0635 0.131837,-0.14112 z m 30.659141,-3.70025 c 1.04779,-0.56043 2.61702,-1.47538 3.48714,-2.03322 0.87014,-0.55785 2.15302,-1.45045 2.85083,-1.98358 0.69783,-0.53312 1.17244,-1.06474 1.05472,-1.18137 -0.11773,-0.11664 -1.13363,-0.30043 -2.25755,-0.40843 -1.15366,-0.11086 -2.04351,-0.0872 -2.04351,0.0545 0,0.13796 0.44496,0.53325 0.98879,0.87842 l 0.98879,0.62757 -2.3383,-0.0782 -2.3383,-0.0782 -0.29193,0.56448 c -0.16056,0.31047 -0.5837,1.04961 -0.94032,1.64252 -0.35663,0.59292 -0.97663,1.25972 -1.37777,1.48177 -0.40115,0.22204 -0.97257,0.40372 -1.26982,0.40372 -0.29725,0 -0.54044,0.1207 -0.54044,0.26822 0,0.14752 0.20765,0.39767 0.46144,0.55589 0.25379,0.15823 0.73137,0.29154 1.06129,0.29627 0.32992,0.004 1.45713,-0.44995 2.50494,-1.01038 z"
       id="path1"
       sodipodi:nodetypes="ccscccsssssscscscscsscsssssccscssssscccccsscssscssscccsccssssssssssscsssccssssssssssccssssssssccssssscccsscccssscssssscsssssccsscsscscccsccsssssssscssscccssccccccsscscssscsssccsssccsscccssssssssssssccssssscccsssscssssssssscscssscccccsscssscssscscssssccccsscsscscsscssscscssssscsscccsssssccssscsssscsscssscssscccccssccccccsscsscccssssscccsscccsscsscccscccssccccsssccccsscccccscssssccsssssssssssscccsssssscss" /></g></svg>
